<svg width="103" height="63" viewBox="0 0 103 63" fill="none" xmlns="http://www.w3.org/2000/svg">
<path d="M60.0886 20.243C61.8585 19.3582 63.2287 18.6926 64.5826 17.9945C66.3198 17.1016 68.0245 16.1518 69.778 15.2995C72.2656 14.0981 74.06 15.1777 74.1578 17.9539C74.2312 20.0888 74.2231 22.2318 74.1578 24.3667C74.1007 26.2581 72.9426 27.3864 71.3114 27.3215C69.7536 27.2566 68.8645 26.1932 68.7993 24.2937C68.7748 23.6362 68.7993 22.9786 68.7993 22.0532C68.0897 22.3292 67.6003 22.4672 67.1518 22.6945C64.5744 24.0096 62.0216 25.3733 59.428 26.664C56.4591 28.1333 54.8361 27.1186 54.7137 23.7742C54.6974 23.3115 54.6567 22.8488 54.6159 22.175C54.0205 22.3861 53.523 22.4997 53.0825 22.7189C50.5623 24.0014 48.0747 25.3327 45.5545 26.6153C42.5693 28.1333 40.8729 27.1592 40.775 23.8878C40.7587 23.4251 40.7261 22.9543 40.6771 22.4916C40.6608 22.3779 40.5466 22.2724 40.3672 21.9802C37.7328 23.2465 35.082 24.521 32.4313 25.8035C31.7054 26.1526 31.004 26.5666 30.2618 26.8832C27.66 27.9871 25.9717 26.94 25.9472 24.1638C25.9065 20.3567 25.9391 16.5496 25.9391 12.7343C25.9391 10.7943 25.9472 8.86229 25.9309 6.92221C25.9309 6.47574 25.833 6.02116 25.776 5.46105C23.6227 5.46105 21.5674 5.46105 19.2429 5.46105C19.2429 6.27281 19.2429 6.97903 19.2429 7.69337C19.2429 12.8399 19.2429 17.9864 19.2429 23.1329C19.2429 23.6037 19.2593 24.0664 19.2348 24.5372C19.1451 26.2013 18.3213 27.1835 16.9103 27.3215C15.4177 27.4757 14.2596 26.5503 13.966 24.9106C13.8681 24.3911 13.8762 23.8472 13.8762 23.3115C13.8681 16.8986 13.8681 10.4777 13.8762 4.06484C13.8844 0.858427 14.7245 0.0304407 17.9543 0.0142056C21.2575 -0.00202938 24.5689 -0.0101469 27.8721 0.0223232C30.3189 0.0466757 31.2895 1.02078 31.3058 3.46415C31.3302 8.34277 31.3139 13.2214 31.3139 18.1C31.3139 18.7413 31.3139 19.3826 31.3139 20.3973C34.1033 19.0335 36.5665 17.824 39.0296 16.6307C40.1225 16.1031 41.191 15.5268 42.3246 15.0965C44.2413 14.366 45.8725 15.3969 46.0601 17.4344C46.1335 18.2218 46.0683 19.0173 46.0683 20.0563C46.7371 19.829 47.2346 19.7316 47.675 19.5043C50.0077 18.3111 52.3322 17.0772 54.6566 15.8677C55.1297 15.6161 55.6027 15.3482 56.1003 15.1452C58.2372 14.2929 59.9173 15.2995 60.0804 17.5561C60.1375 18.3111 60.0886 19.0822 60.0886 20.243Z" fill="white"/>
<path d="M84.4265 30.0329C83.1541 29.9355 81.8899 29.7975 80.6176 29.7325C73.4239 29.3754 66.5484 30.942 59.8114 33.2231C53.1805 35.4635 46.6557 38.0692 39.9432 40.0499C31.3222 42.5907 22.636 42.6069 14.2108 38.9784C8.97458 36.7298 4.59477 33.3529 1.07134 28.9045C-0.233629 27.2567 -0.33152 25.6981 0.696147 24.31C2.05006 22.4674 4.51321 22.2401 6.16889 23.8149C6.55223 24.1801 6.87846 24.6185 7.22101 25.0325C12.0413 30.9258 18.3622 34.1728 25.8577 35.2768C32.513 36.259 39.0297 35.431 45.4649 33.6858C52.161 31.8674 58.8653 30.0816 65.7409 29.0182C71.5317 28.1253 77.2899 28.1983 83.04 29.2942C83.5538 29.3916 84.0513 29.5864 84.5488 29.7406C84.508 29.8381 84.4673 29.9355 84.4265 30.0329Z" fill="white"/>
<path d="M68.8077 33.0525C70.1208 33.8886 71.4339 34.7247 72.7552 35.5609C72.641 35.7963 72.6736 35.7232 72.5595 35.9586C69.2236 34.8222 65.798 33.8156 62.3236 34.6436C58.9225 35.4553 55.603 36.6486 52.0306 38.4263C55.5622 39.717 58.4168 41.1051 60.415 43.7758C56.7693 41.9331 52.9359 40.8616 48.8416 40.8372C46.199 40.821 38.6628 42.8504 37.1294 44.0599C39.7312 44.9772 41.9905 46.2841 43.7114 48.8005C41.9497 48.0212 40.5224 47.2907 39.0298 46.763C35.123 45.3749 31.0695 44.8148 26.9099 44.8554C22.9705 44.896 19.129 44.2872 15.4098 42.9316C15.0101 42.7854 14.5697 42.7611 13.9988 42.6556C14.1048 43.1183 14.1211 43.3861 14.219 43.6215C16.0052 47.9725 18.6641 51.7634 22.3262 54.7019C27.8804 59.1666 33.9812 62.6652 41.3787 62.9087C42.0312 62.9331 42.6919 62.9575 43.3444 62.9737C43.4015 62.9737 43.4667 62.9737 43.5238 62.9737C45.9217 63.0224 48.3277 62.9575 50.5788 62.2106C50.587 62.2106 50.5951 62.2106 50.6114 62.2106C51.166 62.0808 51.8512 61.8291 52.5771 61.5125C52.9278 61.3583 53.2785 61.2284 53.6292 61.0904C66.108 56.2199 78.5623 43.4348 78.5623 43.4348H78.5542C78.8152 43.1994 79.0843 42.9721 79.3535 42.7367C83.4886 39.0757 88.2028 36.5918 93.7408 36.0398C96.7178 35.7394 99.76 35.983 102.998 35.983C94.5238 30.7634 73.6768 29.0506 68.8077 33.0525Z" fill="white"/>
</svg>
